<svg version="1.1" id="Layer_1" xmlns="http://www.w3.org/2000/svg" xmlns:xlink="http://www.w3.org/1999/xlink" x="0px" y="0px" viewBox="0 0 512 512" style="enable-background:new 0 0 512 512;" xml:space="preserve"><path style="" d="M255.832,499.992c-134.752-0.096-243.92-109.408-243.824-244.16s109.408-243.92,244.16-243.824 C390.857,12.104,499.992,121.312,499.992,256C499.792,390.736,390.568,499.888,255.832,499.992z" fill="#FFFFFF"></path><path style="fill: rgb(0, 0, 0);" d="M255.832,24.016c128.124,0.096,231.912,104.028,231.816,232.152S383.62,488.08,255.496,487.984 C127.444,487.888,23.68,384.052,23.68,256C23.872,127.892,127.724,24.112,255.832,24.016 M255.832,0 C114.443,0.096-0.096,114.779,0,256.168S114.779,512.096,256.168,512C397.485,511.904,512,397.317,512,256 C511.952,114.571,397.261-0.048,255.832,0z" fill="#AAC1CE"></path><path style="fill: rgb(203, 196, 185);" d="M255.832,54.46c111.305,0.072,201.476,90.371,201.404,201.676 c-0.072,111.305-90.371,201.476-201.676,201.404C144.303,457.468,54.156,367.257,54.156,256 C54.316,144.711,144.535,54.548,255.832,54.46 M255.832,46.455C140.1,46.527,46.35,140.404,46.423,256.136 c0.072,115.732,93.95,209.482,209.682,209.409C371.78,465.474,465.514,371.676,465.514,256 c-0.032-115.764-93.91-209.578-209.674-209.546H255.832z" fill="#BAC6CC"></path><g><rect x="227.863" y="113.103" transform="matrix(0.7071 -0.7071 0.7071 0.7071 -106.0971 255.9227)" style="fill: rgb(0, 0, 0);" width="56.028" height="285.857" fill="#415E72"></rect><rect x="112.938" y="227.964" transform="matrix(0.7071 -0.7071 0.7071 0.7071 -106.0627 255.8991)" style="fill: rgb(0, 0, 0);" width="285.857" height="56.028" fill="#415E72"></rect></g></svg>