<!-- icon666.com - MILLIONS vector ICONS FREE --><svg id="Layer_4" enable-background="new 0 0 24 24" viewBox="0 0 24 24" xmlns="http://www.w3.org/2000/svg"><g><path d="m1 8c.553 0 1-.447 1-1v-4c0-.552.448-1 1-1h4c.553 0 1-.447 1-1s-.447-1-1-1h-4c-1.654 0-3 1.346-3 3v4c0 .553.447 1 1 1z"/><path d="m23 16c-.553 0-1 .447-1 1v4c0 .552-.448 1-1 1h-4c-.553 0-1 .447-1 1s.447 1 1 1h4c1.654 0 3-1.346 3-3v-4c0-.553-.447-1-1-1z"/><path d="m7 22h-4c-.552 0-1-.448-1-1v-4c0-.553-.447-1-1-1s-1 .447-1 1v4c0 1.654 1.346 3 3 3h4c.553 0 1-.447 1-1s-.447-1-1-1z"/><path d="m21 0h-4c-.553 0-1 .447-1 1s.447 1 1 1h4c.552 0 1 .448 1 1v4c0 .553.447 1 1 1s1-.447 1-1v-4c0-1.654-1.346-3-3-3z"/><path d="m5 7.75v8.5c0 1.517 1.233 2.75 2.75 2.75h8.5c1.517 0 2.75-1.233 2.75-2.75v-8.5c0-1.517-1.233-2.75-2.75-2.75h-8.5c-1.517 0-2.75 1.233-2.75 2.75z"/></g></svg>